Coordinates
version=1
nRows=14
nColumns=33
inDegrees=yes

Units are S.I. units (second, meters, Newtons, ...)
Angles are in degrees.

endheader
time	ground_thorax_rot_x	ground_thorax_rot_y	ground_thorax_rot_z	ground_thorax_tx	ground_thorax_ty	ground_thorax_tz	clav_prot_r	clav_elev_r	scapula_abduction_r	scapula_elevation_r	scapula_upward_rot_r	scapula_winging_r	shoulder_elv_r	plane_of_elev_r	axial_rot_r	elbow_flexion_r	pro_sup_r	wrist_flex_r	wrist_dev_r	clav_prot_l	clav_elev_l	scapula_abduction_l	scapula_elevation_l	scapula_upward_rot_l	scapula_winging_l	shoulder_elv_l	plane_of_elev_l	axial_rot_l	elbow_flexion_l	pro_sup_l	wrist_flex_l	wrist_dev_l	
6.1300	-40.356761	-5.450598	0.821581	-59.623729	811.167326	5.054422	5.385426	-45.000000	44.999741	-45.000000	-10.670048	-1531.609223	-2096.181326	29.443767	74.517749	2171.677102	26.845327	18.322437	9.489084	16.954287	42.759140	-44.999928	-42.509585	-28.183062	3320.191497	-3701.048946	135.692695	-179.468401	1805.842457	-339.833076	13.431144	-19.723058	
6.1400	-40.115599	-5.704727	0.850405	-58.242859	809.339397	5.291293	5.586046	-45.000000	44.999536	-45.000000	-10.943510	-1531.382650	-2096.290566	29.243914	75.096320	2171.427067	24.771936	18.133540	9.679275	16.870192	42.486687	-44.999871	-42.183433	-28.175060	3320.042536	-3701.068570	135.730747	-179.656026	1805.792981	-339.205969	13.021587	-19.605588	
6.1500	-39.876266	-6.072242	1.014303	-57.008027	807.580627	5.497523	5.935426	-45.000000	44.999170	-45.000000	-11.448963	-1531.228537	-2096.399812	29.113321	75.653299	2171.216699	22.996347	17.948703	9.804764	16.677966	42.125022	-44.999769	-41.878991	-28.492104	3319.942651	-3701.012886	135.634701	-179.662212	1805.736707	-338.576061	12.637237	-19.486121	
6.1600	-39.640507	-6.313680	1.041719	-56.071856	805.975539	5.645258	6.092335	-45.000000	44.998512	-45.000000	-11.719635	-1531.100876	-2096.517476	28.970906	76.233292	2171.005470	21.441263	17.788703	9.947824	16.524499	41.832034	-44.999586	-41.551634	-28.466021	3319.872353	-3701.024717	135.651812	-179.773694	1805.707748	-337.727247	12.237047	-19.392665	
6.1700	-39.411522	-6.508642	1.023261	-55.472489	804.527767	5.723189	6.172672	-45.000000	44.997336	-45.000000	-11.919197	-1531.012845	-2096.620877	28.839918	76.797359	2170.831716	20.203251	17.662324	10.090939	16.387097	41.556027	-44.999258	-41.221971	-28.324273	3319.851123	-3701.063328	135.697511	-179.867601	1805.691440	-336.770783	11.828776	-19.313803	
6.1800	-39.198215	-6.657262	0.962423	-55.266087	803.250708	5.717929	6.198522	-45.000000	44.995226	-45.000000	-12.062712	-1530.972305	-2096.721252	28.726969	77.328643	2170.687537	19.300957	17.569838	10.219025	16.254610	41.328470	-44.998670	-40.912747	-28.113987	3319.873173	-3701.116413	135.753031	-179.935856	1805.681721	-335.754169	11.447015	-19.257395	
6.1900	-39.006845	-6.771663	0.877794	-55.473774	802.135459	5.623603	6.196466	-45.000000	44.991453	-45.000000	-12.188479	-1530.966298	-2096.805523	28.623255	77.810508	2170.578231	18.712986	17.514049	10.338651	16.153953	41.149038	-44.997619	-40.641234	-27.878233	3319.930553	-3701.186939	135.812063	-179.968783	1805.669312	-334.776683	11.097710	-19.216924	
6.2000	-38.844236	-6.876167	0.800046	-56.096404	801.163269	5.440932	6.212839	-45.000000	44.984679	-45.000000	-12.354479	-1530.996242	-2096.882448	28.534416	78.239407	2170.495222	18.400938	17.489833	10.437053	16.066544	41.022653	-44.995732	-40.429111	-27.709900	3320.015208	-3701.260457	135.844545	-179.954007	1805.641039	-333.939571	10.813588	-19.192114	
6.2100	-38.709467	-6.966566	0.731263	-57.128127	800.316641	5.176036	6.228372	-45.000000	44.972587	-45.000000	-12.551883	-1531.055444	-2096.934060	28.444525	78.639312	2170.441725	18.294435	17.498930	10.532289	16.014606	40.940534	-44.992363	-40.259644	-27.559783	3320.131452	-3701.355551	135.879658	-179.933074	1805.593320	-333.319429	10.582116	-19.173244	
6.2200	-38.603735	-7.060738	0.692288	-58.557079	799.579499	4.840006	6.269674	-45.000000	44.950809	-45.000000	-12.811515	-1531.158226	-2096.980376	28.363716	79.023441	2170.402890	18.365135	17.528080	10.597581	15.968916	40.908378	-44.986297	-40.139641	-27.499852	3320.266336	-3701.448991	135.903477	-179.891955	1805.525824	-332.972883	10.438407	-19.166344	
6.2300	-38.526230	-7.163391	0.686952	-60.366871	798.937724	4.447804	6.329609	-45.000000	44.912125	-45.000000	-13.150565	-1531.288378	-2097.005238	28.284627	79.411319	2170.386545	18.585772	17.574388	10.640739	15.945643	40.897346	-44.975515	-40.065029	-27.517479	3320.415864	-3701.551027	135.931438	-179.836626	1805.442131	-332.932139	10.367678	-19.165522	
6.2400	-38.482279	-7.301616	0.744571	-62.537901	798.378908	4.016645	6.419979	-45.000000	44.841919	-45.000000	-13.609684	-1531.434349	-2097.014423	28.194769	79.799887	2170.396670	18.936908	17.630557	10.649196	15.963373	40.911811	-44.955972	-40.059009	-27.721464	3320.539941	-3701.630326	135.961155	-179.765221	1805.356920	-333.226224	10.370192	-19.169261	
6.2500	-38.471703	-7.475816	0.866704	-65.048551	797.892623	3.564114	6.529736	-45.000000	44.718706	-45.000000	-14.217423	-1531.576428	-2096.993907	28.095401	80.199655	2170.438049	19.391075	17.694685	10.629478	16.014153	40.931438	-44.921604	-40.115752	-28.086078	3320.639034	-3701.690881	135.996719	-179.698145	1805.275210	-333.836121	10.435761	-19.177778	
6.2600	-38.502045	-7.715508	1.091260	-67.877233	797.470275	3.106228	6.661642	-45.000000	44.490888	-45.000000	-15.055821	-1531.692659	-2096.954740	27.991261	80.608314	2170.494890	19.921979	17.753984	10.562942	16.107045	40.972711	-44.858255	-40.265330	-28.706214	3320.662306	-3701.697011	136.026587	-179.614015	1805.203598	-334.725973	10.577989	-19.195688	
